<?xml version="1.0" standalone="no"?>
<!DOCTYPE svg PUBLIC "-//W3C//DTD SVG 1.1//EN"
   "http://www.w3.org/Graphics/SVG/1.1/DTD/svg11.dtd">
<svg width="149.60" height="36.00" version="1.1"
   xmlns="http://www.w3.org/2000/svg">
    <desc>CueCat 12345678901234</desc>

    <g id="cuecat" fill = "#000000">
        <rect x="0" y="0" width="149.60" height="36.00" fill="#ffffff" />
        <circle cx="7.00" cy="12.50" r="3.50" fill="red" />
        <circle cx="7.00" cy="23.50" r="3.50" fill="red" />
        <polygon points="14.00,4.00 14.00,32.00 25.60,32.00" />
        <polygon points="134.00,4.00 145.60,4.00 145.60,32.00" />
        <polygon points="24.00,4.00 25.00,4.00 36.60,32.00 35.60,32.00" />
        <polygon points="26.00,4.00 28.00,4.00 39.60,32.00 37.60,32.00" />
        <polygon points="30.00,4.00 33.00,4.00 44.60,32.00 41.60,32.00" />
        <polygon points="35.00,4.00 36.00,4.00 47.60,32.00 46.60,32.00" />
        <polygon points="39.00,4.00 40.00,4.00 51.60,32.00 50.60,32.00" />
        <polygon points="41.00,4.00 43.00,4.00 54.60,32.00 52.60,32.00" />
        <polygon points="46.00,4.00 49.00,4.00 60.60,32.00 57.60,32.00" />
        <polygon points="52.00,4.00 53.00,4.00 64.60,32.00 63.60,32.00" />
        <polygon points="54.00,4.00 56.00,4.00 67.60,32.00 65.60,32.00" />
        <polygon points="57.00,4.00 59.00,4.00 70.60,32.00 68.60,32.00" />
        <polygon points="63.00,4.00 64.00,4.00 75.60,32.00 74.60,32.00" />
        <polygon points="65.00,4.00 66.00,4.00 77.60,32.00 76.60,32.00" />
        <polygon points="68.00,4.00 70.00,4.00 81.60,32.00 79.60,32.00" />
        <polygon points="71.00,4.00 75.00,4.00 86.60,32.00 82.60,32.00" />
        <polygon points="76.00,4.00 78.00,4.00 89.60,32.00 87.60,32.00" />
        <polygon points="79.00,4.00 80.00,4.00 91.60,32.00 90.60,32.00" />
        <polygon points="81.00,4.00 83.00,4.00 94.60,32.00 92.60,32.00" />
        <polygon points="85.00,4.00 88.00,4.00 99.60,32.00 96.60,32.00" />
        <polygon points="90.00,4.00 91.00,4.00 102.60,32.00 101.60,32.00" />
        <polygon points="94.00,4.00 95.00,4.00 106.60,32.00 105.60,32.00" />
        <polygon points="96.00,4.00 98.00,4.00 109.60,32.00 107.60,32.00" />
        <polygon points="101.00,4.00 103.00,4.00 114.60,32.00 112.60,32.00" />
        <polygon points="104.00,4.00 106.00,4.00 117.60,32.00 115.60,32.00" />
        <polygon points="107.00,4.00 111.00,4.00 122.60,32.00 118.60,32.00" />
        <polygon points="112.00,4.00 114.00,4.00 125.60,32.00 123.60,32.00" />
        <polygon points="117.00,4.00 120.00,4.00 131.60,32.00 128.60,32.00" />
        <polygon points="121.00,4.00 122.00,4.00 133.60,32.00 132.60,32.00" />
        <polygon points="123.00,4.00 125.00,4.00 136.60,32.00 134.60,32.00" />
        <rect x="57.00" y="28.00" width="61.00" height="5.00" fill="white" />
        <text x="58.00" y="32.00" font-family="Verdana" font-size="5">C 12 34 56 78 90 12 34 </text>
    </g>
</svg>
