<?xml version="1.0" standalone="no"?>
<!DOCTYPE svg PUBLIC "-//W3C//DTD SVG 1.1//EN"
   "http://www.w3.org/Graphics/SVG/1.1/DTD/svg11.dtd">
<svg width="100" height="100" version="1.1"
   xmlns="http://www.w3.org/2000/svg">
    <desc>Sunburst 01234567890</desc>

    <g id="sunburst" fill = "#000000">
        <rect x="0" y="0" width="100" height="100" fill="#ffffff" />
        <path d="M 50.00 0.00 A 50.00 50.00 0 0 1 53.27 0.11 L 51.22 31.32 A 18.72 18.72 0 0 0 50.00 31.28 Z" />
        <path d="M 56.53 0.43 A 50.00 50.00 0 0 1 62.94 1.70 L 54.85 31.92 A 18.72 18.72 0 0 0 52.44 31.44 Z" />
        <path d="M 69.13 3.81 A 50.00 50.00 0 0 1 72.11 5.16 L 58.28 33.21 A 18.72 18.72 0 0 0 57.16 32.70 Z" />
        <path d="M 75.00 6.70 A 50.00 50.00 0 0 1 77.78 8.43 L 60.40 34.43 A 18.72 18.72 0 0 0 59.36 33.79 Z" />
        <path d="M 80.44 10.33 A 50.00 50.00 0 0 1 82.97 12.41 L 62.34 35.93 A 18.72 18.72 0 0 0 61.40 35.15 Z" />
        <path d="M 85.36 14.64 A 50.00 50.00 0 0 1 87.59 17.03 L 64.07 37.66 A 18.72 18.72 0 0 0 63.24 36.76 Z" />
        <path d="M 89.67 19.56 A 50.00 50.00 0 0 1 91.57 22.22 L 65.57 39.60 A 18.72 18.72 0 0 0 64.85 38.60 Z" />
        <path d="M 94.84 27.89 A 50.00 50.00 0 0 1 97.35 33.93 L 67.73 43.98 A 18.72 18.72 0 0 0 66.79 41.72 Z" />
        <path d="M 98.30 37.06 A 50.00 50.00 0 0 1 99.04 40.25 L 68.36 46.35 A 18.72 18.72 0 0 0 68.08 45.15 Z" />
        <path d="M 99.57 43.47 A 50.00 50.00 0 0 1 99.89 46.73 L 68.68 48.78 A 18.72 18.72 0 0 0 68.56 47.56 Z" />
        <path d="M 100.00 50.00 A 50.00 50.00 0 0 1 99.89 53.27 L 68.68 51.22 A 18.72 18.72 0 0 0 68.72 50.00 Z" />
        <path d="M 99.04 59.75 A 50.00 50.00 0 0 1 97.35 66.07 L 67.73 56.02 A 18.72 18.72 0 0 0 68.36 53.65 Z" />
        <path d="M 96.19 69.13 A 50.00 50.00 0 0 1 94.84 72.11 L 66.79 58.28 A 18.72 18.72 0 0 0 67.30 57.16 Z" />
        <path d="M 91.57 77.78 A 50.00 50.00 0 0 1 89.67 80.44 L 64.85 61.40 A 18.72 18.72 0 0 0 65.57 60.40 Z" />
        <path d="M 87.59 82.97 A 50.00 50.00 0 0 1 82.97 87.59 L 62.34 64.07 A 18.72 18.72 0 0 0 64.07 62.34 Z" />
        <path d="M 80.44 89.67 A 50.00 50.00 0 0 1 77.78 91.57 L 60.40 65.57 A 18.72 18.72 0 0 0 61.40 64.85 Z" />
        <path d="M 75.00 93.30 A 50.00 50.00 0 0 1 72.11 94.84 L 58.28 66.79 A 18.72 18.72 0 0 0 59.36 66.21 Z" />
        <path d="M 69.13 96.19 A 50.00 50.00 0 0 1 66.07 97.35 L 56.02 67.73 A 18.72 18.72 0 0 0 57.16 67.30 Z" />
        <path d="M 62.94 98.30 A 50.00 50.00 0 0 1 59.75 99.04 L 53.65 68.36 A 18.72 18.72 0 0 0 54.85 68.08 Z" />
        <path d="M 53.27 99.89 A 50.00 50.00 0 0 1 50.00 100.00 L 50.00 68.72 A 18.72 18.72 0 0 0 51.22 68.68 Z" />
        <path d="M 46.73 99.89 A 50.00 50.00 0 0 1 40.25 99.04 L 46.35 68.36 A 18.72 18.72 0 0 0 48.78 68.68 Z" />
        <path d="M 37.06 98.30 A 50.00 50.00 0 0 1 33.93 97.35 L 43.98 67.73 A 18.72 18.72 0 0 0 45.15 68.08 Z" />
        <path d="M 27.89 94.84 A 50.00 50.00 0 0 1 22.22 91.57 L 39.60 65.57 A 18.72 18.72 0 0 0 41.72 66.79 Z" />
        <path d="M 17.03 87.59 A 50.00 50.00 0 0 1 12.41 82.97 L 35.93 62.34 A 18.72 18.72 0 0 0 37.66 64.07 Z" />
        <path d="M 8.43 77.78 A 50.00 50.00 0 0 1 6.70 75.00 L 33.79 59.36 A 18.72 18.72 0 0 0 34.43 60.40 Z" />
        <path d="M 5.16 72.11 A 50.00 50.00 0 0 1 3.81 69.13 L 32.70 57.16 A 18.72 18.72 0 0 0 33.21 58.28 Z" />
        <path d="M 2.65 66.07 A 50.00 50.00 0 0 1 1.70 62.94 L 31.92 54.84 A 18.72 18.72 0 0 0 32.27 56.02 Z" />
        <path d="M 0.96 59.75 A 50.00 50.00 0 0 1 0.43 56.53 L 31.44 52.44 A 18.72 18.72 0 0 0 31.64 53.65 Z" />
        <path d="M 0.11 53.27 A 50.00 50.00 0 0 1 0.11 46.73 L 31.32 48.78 A 18.72 18.72 0 0 0 31.32 51.22 Z" />
        <path d="M 0.43 43.47 A 50.00 50.00 0 0 1 0.96 40.25 L 31.64 46.35 A 18.72 18.72 0 0 0 31.44 47.56 Z" />
        <path d="M 2.65 33.93 A 50.00 50.00 0 0 1 5.16 27.89 L 33.21 41.72 A 18.72 18.72 0 0 0 32.27 43.98 Z" />
        <path d="M 8.43 22.22 A 50.00 50.00 0 0 1 12.41 17.03 L 35.93 37.66 A 18.72 18.72 0 0 0 34.43 39.60 Z" />
        <path d="M 17.03 12.41 A 50.00 50.00 0 0 1 22.22 8.43 L 39.60 34.43 A 18.72 18.72 0 0 0 37.66 35.93 Z" />
        <path d="M 25.00 6.70 A 50.00 50.00 0 0 1 27.89 5.16 L 41.72 33.21 A 18.72 18.72 0 0 0 40.64 33.79 Z" />
        <path d="M 30.87 3.81 A 50.00 50.00 0 0 1 33.93 2.65 L 43.98 32.27 A 18.72 18.72 0 0 0 42.84 32.70 Z" />
        <path d="M 37.06 1.70 A 50.00 50.00 0 0 1 40.25 0.96 L 46.35 31.64 A 18.72 18.72 0 0 0 45.16 31.92 Z" />
        <path d="M 43.47 0.43 A 50.00 50.00 0 0 1 46.73 0.11 L 48.78 31.32 A 18.72 18.72 0 0 0 47.56 31.44 Z" />
    </g>
</svg>
